<svg aria-hidden="true" style="position: absolute; width: 0; height: 0; overflow: hidden;" version="1.1" xmlns="http://www.w3.org/2000/svg" xmlns:xlink="http://www.w3.org/1999/xlink">
<defs>
<!-- Иконка кинолента -->
<symbol id="icon-film" viewBox="0 0 32 32">
<path fill="none" stroke="#fff" style="stroke: var(--color1, #fff)" stroke-linejoin="round" stroke-linecap="round" stroke-miterlimit="4" stroke-width="2.6667" d="M26.427 2.667h-20.853c-1.605 0-2.907 1.301-2.907 2.907v20.853c0 1.605 1.301 2.907 2.907 2.907h20.853c1.605 0 2.907-1.301 2.907-2.907v-20.853c0-1.605-1.301-2.907-2.907-2.907z"></path>
<path fill="none" stroke="#fff" style="stroke: var(--color1, #fff)" stroke-linejoin="round" stroke-linecap="round" stroke-miterlimit="4" stroke-width="2.6667" d="M9.333 2.667v26.667"></path>
<path fill="none" stroke="#fff" style="stroke: var(--color1, #fff)" stroke-linejoin="round" stroke-linecap="round" stroke-miterlimit="4" stroke-width="2.6667" d="M22.667 2.667v26.667"></path>
<path fill="none" stroke="#fff" style="stroke: var(--color1, #fff)" stroke-linejoin="round" stroke-linecap="round" stroke-miterlimit="4" stroke-width="2.6667" d="M2.667 16h26.667"></path>
<path fill="none" stroke="#fff" style="stroke: var(--color1, #fff)" stroke-linejoin="round" stroke-linecap="round" stroke-miterlimit="4" stroke-width="2.6667" d="M2.667 9.333h6.667"></path>
<path fill="none" stroke="#fff" style="stroke: var(--color1, #fff)" stroke-linejoin="round" stroke-linecap="round" stroke-miterlimit="4" stroke-width="2.6667" d="M2.667 22.667h6.667"></path>
<path fill="none" stroke="#fff" style="stroke: var(--color1, #fff)" stroke-linejoin="round" stroke-linecap="round" stroke-miterlimit="4" stroke-width="2.6667" d="M22.667 22.667h6.667"></path>
<path fill="none" stroke="#fff" style="stroke: var(--color1, #fff)" stroke-linejoin="round" stroke-linecap="round" stroke-miterlimit="4" stroke-width="2.6667" d="M22.667 9.333h6.667"></path>
</symbol>
<!-- Иконка сердце -->
<symbol id="icon-heard" viewBox="0 0 34 32">
<path fill="#ff6b08" style="fill: var(--color2, #ff6b08)" d="M17.231 32l-2.412-2.435c-8.96-8-14.818-13.391-14.818-20 0-5.391 4.135-9.565 9.477-9.565 2.929 0 5.858 1.391 7.754 3.652 1.895-2.261 4.825-3.652 7.754-3.652 5.342 0 9.477 4.174 9.477 9.565 0 6.609-5.858 12-14.818 20l-2.412 2.435z"></path>
</symbol>
<!-- Иконка для кнопки поиска -->
<symbol id="icon-search" viewBox="0 0 32 32">
<path fill="none" stroke="#fff" style="stroke: var(--color1, #fff)" stroke-linejoin="round" stroke-linecap="round" stroke-miterlimit="4" stroke-width="2.6667" d="M14.667 25.333c5.891 0 10.667-4.776 10.667-10.667s-4.776-10.667-10.667-10.667c-5.891 0-10.667 4.776-10.667 10.667s4.776 10.667 10.667 10.667z"></path>
<path fill="none" stroke="#fff" style="stroke: var(--color1, #fff)" stroke-linejoin="round" stroke-linecap="round" stroke-miterlimit="4" stroke-width="2.6667" d="M28 28.001l-5.8-5.8"></path>
</symbol>
<!-- Иконка стрелка влево -->
<symbol id="icon-arrow-left" viewBox="0 0 16 16" xmlns="http://www.w3.org/2000/svg">
<path d="M12.6666 8H3.33325" stroke="black" stroke-width="1.33333" stroke-linecap="round" stroke-linejoin="round"/>
<path d="M7.99992 12.6667L3.33325 8.00004L7.99992 3.33337" stroke="black" stroke-width="1.33333" stroke-linecap="round" stroke-linejoin="round"/>
</symbol>
<!-- Иконка стрелка вправо -->
<symbol id="icon-arrow-right" viewBox="0 0 16 16">
<path d="M3.33341 8H12.6667" stroke="black" stroke-width="1.33333" stroke-linecap="round" stroke-linejoin="round"/>
<path d="M8.00008 12.6667L12.6667 8.00004L8.00008 3.33337" stroke="black" stroke-width="1.33333" stroke-linecap="round" stroke-linejoin="round"/>
</symbol>
<!-- Иконка с тремя точками -->
<symbol id="icon-dots" viewBox="0 0 10 3">
<path d="M1.61719 0.5C1.88281 0.5 2.08789 0.576172 2.23242 0.728516C2.37695 0.876953 2.44922 1.06445 2.44922 1.29102C2.44922 1.51367 2.37695 1.69922 2.23242 1.84766C2.08789 1.99219 1.88281 2.06445 1.61719 2.06445C1.36328 2.06445 1.16211 1.99219 1.01367 1.84766C0.865234 1.70312 0.791016 1.51758 0.791016 1.29102C0.791016 1.06445 0.863281 0.876953 1.00781 0.728516C1.15234 0.576172 1.35547 0.5 1.61719 0.5ZM4.96875 0.5C5.23438 0.5 5.43945 0.576172 5.58398 0.728516C5.72852 0.876953 5.80078 1.06445 5.80078 1.29102C5.80078 1.51367 5.72852 1.69922 5.58398 1.84766C5.43945 1.99219 5.23438 2.06445 4.96875 2.06445C4.71484 2.06445 4.51367 1.99219 4.36523 1.84766C4.2168 1.70312 4.14258 1.51758 4.14258 1.29102C4.14258 1.06445 4.21484 0.876953 4.35938 0.728516C4.50391 0.576172 4.70703 0.5 4.96875 0.5ZM8.32031 0.5C8.58594 0.5 8.79102 0.576172 8.93555 0.728516C9.08008 0.876953 9.15234 1.06445 9.15234 1.29102C9.15234 1.51367 9.08008 1.69922 8.93555 1.84766C8.79102 1.99219 8.58594 2.06445 8.32031 2.06445C8.06641 2.06445 7.86523 1.99219 7.7168 1.84766C7.56836 1.70312 7.49414 1.51758 7.49414 1.29102C7.49414 1.06445 7.56641 0.876953 7.71094 0.728516C7.85547 0.576172 8.05859 0.5 8.32031 0.5Z" fill="black"/>
</symbol>
<!-- Иконка креста для закрытия модального окна -->
<symbol id="icon-close" viewBox="0 0 30 30">
<path d="M8 8L22 22" stroke="black" stroke-width="2"/>
<path d="M8 22L22 8" stroke="black" stroke-width="2"/>
</symbol>
</defs>
</svg>
